<svg width="81" height="32" viewBox="0 0 81 32" fill="none" xmlns="http://www.w3.org/2000/svg">
<path d="M5.00308 8.22482C5.95211 8.22482 6.71691 8.37554 7.29749 8.677C7.87807 8.96729 8.16836 9.35806 8.16836 9.84932C8.16836 10.095 8.09579 10.3127 7.95064 10.5025C7.8055 10.6811 7.61569 10.7704 7.38123 10.7704C7.20259 10.7704 7.05744 10.7481 6.94579 10.7034C6.83414 10.6476 6.72249 10.5806 6.61084 10.5025C6.51036 10.4132 6.40987 10.3406 6.30939 10.2848C6.19774 10.2289 6.03026 10.1787 5.80696 10.134C5.59483 10.0894 5.42177 10.067 5.28779 10.067C4.45042 10.067 3.79168 10.3294 3.31159 10.8542C2.84266 11.3678 2.60819 12.0432 2.60819 12.8806C2.60819 13.6845 2.84824 14.3544 3.32833 14.8903C3.80843 15.4151 4.4225 15.6775 5.17056 15.6775C5.71764 15.6775 6.12517 15.6105 6.39313 15.4765C6.46012 15.443 6.54944 15.3872 6.66109 15.309C6.7839 15.2197 6.89555 15.1527 6.99604 15.108C7.09652 15.0634 7.21934 15.041 7.36448 15.041C7.64361 15.041 7.86132 15.1304 8.01763 15.309C8.18511 15.4876 8.26885 15.7165 8.26885 15.9957C8.26885 16.2636 8.11254 16.5148 7.79992 16.7493C7.4873 16.9838 7.07419 17.1736 6.5606 17.3187C6.04701 17.4527 5.49993 17.5197 4.91935 17.5197C4.05964 17.5197 3.30042 17.3187 2.64169 16.9168C1.99412 16.5148 1.49169 15.9622 1.13441 15.2588C0.777132 14.5442 0.598492 13.7515 0.598492 12.8806C0.598492 11.9763 0.782714 11.1724 1.15116 10.469C1.53077 9.76559 2.05552 9.2185 2.72542 8.82773C3.39532 8.42579 4.15454 8.22482 5.00308 8.22482ZM11.8972 16.3306C11.8972 16.6209 11.7967 16.8665 11.5957 17.0675C11.4059 17.2573 11.1659 17.3522 10.8756 17.3522C10.5964 17.3522 10.362 17.2573 10.1722 17.0675C9.98237 16.8665 9.88747 16.6209 9.88747 16.3306V5.98065C9.88747 5.69036 9.98237 5.45031 10.1722 5.26051C10.3731 5.05954 10.6188 4.95905 10.9091 4.95905C11.1882 4.95905 11.4227 5.05954 11.6125 5.26051C11.8023 5.45031 11.8972 5.69036 11.8972 5.98065V16.3306ZM22.6786 12.8806C22.6786 13.7738 22.4777 14.5777 22.0757 15.2923C21.6738 15.9957 21.1211 16.5427 20.4177 16.9335C19.7255 17.3243 18.9607 17.5197 18.1233 17.5197C17.2748 17.5197 16.5044 17.3243 15.8122 16.9335C15.1199 16.5427 14.5728 15.9957 14.1709 15.2923C13.769 14.5777 13.568 13.7738 13.568 12.8806C13.568 11.9874 13.769 11.1891 14.1709 10.4857C14.5728 9.77117 15.1199 9.2185 15.8122 8.82773C16.5044 8.42579 17.2748 8.22482 18.1233 8.22482C18.9607 8.22482 19.7255 8.42579 20.4177 8.82773C21.1211 9.2185 21.6738 9.77117 22.0757 10.4857C22.4777 11.1891 22.6786 11.9874 22.6786 12.8806ZM20.6689 12.8806C20.6689 12.3335 20.5517 11.8479 20.3172 11.4236C20.0939 10.9882 19.7869 10.6532 19.3961 10.4187C19.0165 10.1843 18.5922 10.067 18.1233 10.067C17.6544 10.067 17.2245 10.1843 16.8338 10.4187C16.4541 10.6532 16.1471 10.9882 15.9126 11.4236C15.6893 11.8479 15.5777 12.3335 15.5777 12.8806C15.5777 13.4277 15.6893 13.9134 15.9126 14.3377C16.1471 14.7619 16.4541 15.0913 16.8338 15.3258C17.2245 15.5602 17.6544 15.6775 18.1233 15.6775C18.5922 15.6775 19.0165 15.5602 19.3961 15.3258C19.7869 15.0913 20.0939 14.7619 20.3172 14.3377C20.5517 13.9134 20.6689 13.4277 20.6689 12.8806ZM31.0065 8.39229C31.2967 8.39229 31.5368 8.49278 31.7266 8.69375C31.9164 8.88355 32.0113 9.1236 32.0113 9.41389V13.6678C32.0113 14.8736 31.6764 15.817 31.0065 16.4981C30.3477 17.1791 29.4043 17.5197 28.1761 17.5197C26.948 17.5197 26.0045 17.1791 25.3458 16.4981C24.6871 15.817 24.3577 14.8736 24.3577 13.6678V9.41389C24.3577 9.1236 24.4526 8.88355 24.6424 8.69375C24.8322 8.49278 25.0723 8.39229 25.3625 8.39229C25.6528 8.39229 25.8929 8.49278 26.0827 8.69375C26.2725 8.88355 26.3674 9.1236 26.3674 9.41389V13.6678C26.3674 14.3488 26.5181 14.8568 26.8196 15.1918C27.121 15.5156 27.5732 15.6775 28.1761 15.6775C28.7902 15.6775 29.248 15.5156 29.5494 15.1918C29.8509 14.8568 30.0016 14.3488 30.0016 13.6678V9.41389C30.0016 9.1236 30.0965 8.88355 30.2863 8.69375C30.4761 8.49278 30.7162 8.39229 31.0065 8.39229ZM41.4387 4.95905C41.729 4.95905 41.969 5.05396 42.1589 5.24376C42.3487 5.43357 42.4436 5.6792 42.4436 5.98065V16.3306C42.4436 16.6209 42.3487 16.8665 42.1589 17.0675C41.969 17.2573 41.729 17.3522 41.4387 17.3522C41.1484 17.3522 40.9084 17.2573 40.7186 17.0675C40.5399 16.8777 40.445 16.6376 40.4339 16.3474C40.1547 16.6711 39.7751 16.9503 39.295 17.1847C38.8261 17.408 38.3293 17.5197 37.8045 17.5197C37.0341 17.5197 36.3363 17.3243 35.7111 16.9335C35.0858 16.5316 34.589 15.9789 34.2205 15.2755C33.8633 14.5721 33.6846 13.7738 33.6846 12.8806C33.6846 11.9874 33.8633 11.1891 34.2205 10.4857C34.5778 9.77117 35.0635 9.2185 35.6776 8.82773C36.3028 8.42579 36.9895 8.22482 37.7375 8.22482C38.2734 8.22482 38.7759 8.3253 39.2448 8.52627C39.7137 8.71608 40.1101 8.96171 40.4339 9.26316V5.98065C40.4339 5.69036 40.5288 5.45031 40.7186 5.26051C40.9084 5.05954 41.1484 4.95905 41.4387 4.95905ZM38.0557 15.6775C38.7814 15.6775 39.3732 15.4151 39.8309 14.8903C40.2887 14.3544 40.5176 13.6845 40.5176 12.8806C40.5176 12.0767 40.2887 11.4068 39.8309 10.8709C39.3732 10.335 38.7814 10.067 38.0557 10.067C37.3412 10.067 36.755 10.335 36.2972 10.8709C35.8395 11.4068 35.6106 12.0767 35.6106 12.8806C35.6106 13.6845 35.8339 14.3544 36.2805 14.8903C36.7382 15.4151 37.33 15.6775 38.0557 15.6775ZM48.5237 8.22482C49.4727 8.22482 50.2375 8.37554 50.8181 8.677C51.3987 8.96729 51.689 9.35806 51.689 9.84932C51.689 10.095 51.6164 10.3127 51.4712 10.5025C51.3261 10.6811 51.1363 10.7704 50.9018 10.7704C50.7232 10.7704 50.578 10.7481 50.4664 10.7034C50.3547 10.6476 50.2431 10.5806 50.1314 10.5025C50.031 10.4132 49.9305 10.3406 49.83 10.2848C49.7183 10.2289 49.5509 10.1787 49.3276 10.134C49.1154 10.0894 48.9424 10.067 48.8084 10.067C47.971 10.067 47.3123 10.3294 46.8322 10.8542C46.3633 11.3678 46.1288 12.0432 46.1288 12.8806C46.1288 13.6845 46.3688 14.3544 46.8489 14.8903C47.329 15.4151 47.9431 15.6775 48.6912 15.6775C49.2382 15.6775 49.6458 15.6105 49.9137 15.4765C49.9807 15.443 50.07 15.3872 50.1817 15.309C50.3045 15.2197 50.4162 15.1527 50.5166 15.108C50.6171 15.0634 50.7399 15.041 50.8851 15.041C51.1642 15.041 51.3819 15.1304 51.5382 15.309C51.7057 15.4876 51.7894 15.7165 51.7894 15.9957C51.7894 16.2636 51.6331 16.5148 51.3205 16.7493C51.0079 16.9838 50.5948 17.1736 50.0812 17.3187C49.5676 17.4527 49.0205 17.5197 48.4399 17.5197C47.5802 17.5197 46.821 17.3187 46.1623 16.9168C45.5147 16.5148 45.0123 15.9622 44.655 15.2588C44.2977 14.5442 44.1191 13.7515 44.1191 12.8806C44.1191 11.9763 44.3033 11.1724 44.6718 10.469C45.0514 9.76559 45.5761 9.2185 46.246 8.82773C46.9159 8.42579 47.6751 8.22482 48.5237 8.22482ZM60.4923 8.22482C60.7825 8.22482 61.0226 8.31972 61.2124 8.50952C61.4022 8.69933 61.4971 8.94496 61.4971 9.24641V16.3306C61.4971 16.6209 61.4022 16.8665 61.2124 17.0675C61.0226 17.2573 60.7825 17.3522 60.4923 17.3522C60.202 17.3522 59.9619 17.2573 59.7721 17.0675C59.5935 16.8777 59.4986 16.6376 59.4874 16.3474C59.2083 16.6711 58.8287 16.9503 58.3486 17.1847C57.8796 17.408 57.3828 17.5197 56.8581 17.5197C56.0877 17.5197 55.3899 17.3243 54.7646 16.9335C54.1394 16.5316 53.6425 15.9789 53.2741 15.2755C52.9168 14.5721 52.7382 13.7738 52.7382 12.8806C52.7382 11.9874 52.9168 11.1891 53.2741 10.4857C53.6314 9.77117 54.117 9.2185 54.7311 8.82773C55.3564 8.42579 56.043 8.22482 56.7911 8.22482C57.327 8.22482 57.8294 8.3253 58.2983 8.52627C58.7673 8.71608 59.1636 8.96171 59.4874 9.26316V9.24641C59.4874 8.95612 59.5823 8.71608 59.7721 8.52627C59.9619 8.3253 60.202 8.22482 60.4923 8.22482ZM57.1093 15.6775C57.835 15.6775 58.4267 15.4151 58.8845 14.8903C59.3423 14.3544 59.5711 13.6845 59.5711 12.8806C59.5711 12.0767 59.3423 11.4068 58.8845 10.8709C58.4267 10.335 57.835 10.067 57.1093 10.067C56.3947 10.067 55.8085 10.335 55.3508 10.8709C54.893 11.4068 54.6641 12.0767 54.6641 12.8806C54.6641 13.6845 54.8874 14.3544 55.334 14.8903C55.7918 15.4151 56.3835 15.6775 57.1093 15.6775ZM63.1559 15.9622C63.0554 15.8282 63.0052 15.6607 63.0052 15.4597C63.0052 15.1694 63.1503 14.9238 63.4406 14.7228C63.5969 14.6224 63.7588 14.5721 63.9263 14.5721C64.1607 14.5721 64.384 14.6782 64.5962 14.8903C64.9311 15.2364 65.2772 15.4932 65.6345 15.6607C66.003 15.8282 66.444 15.9119 66.9576 15.9119C67.8285 15.8784 68.2639 15.5491 68.2639 14.9238C68.2639 14.6 68.1132 14.3544 67.8117 14.1869C67.5214 14.0195 67.0636 13.852 66.4384 13.6845C65.7908 13.5059 65.2605 13.3272 64.8474 13.1486C64.4455 12.9699 64.0938 12.702 63.7923 12.3447C63.502 11.9763 63.3569 11.485 63.3569 10.8709C63.3569 10.335 63.5076 9.87165 63.8091 9.48088C64.1217 9.07894 64.5236 8.7719 65.0149 8.55977C65.5173 8.33647 66.0476 8.22482 66.6059 8.22482C67.1753 8.22482 67.7447 8.33088 68.3141 8.54302C68.8835 8.75515 69.3301 9.06777 69.6539 9.48088C69.7991 9.65952 69.8716 9.86049 69.8716 10.0838C69.8716 10.3406 69.7656 10.5527 69.5534 10.7202C69.3971 10.843 69.2185 10.9044 69.0175 10.9044C68.7719 10.9044 68.5709 10.8263 68.4146 10.67C68.2136 10.4243 67.9513 10.2289 67.6275 10.0838C67.3149 9.93864 66.9576 9.86607 66.5556 9.86607C65.7071 9.86607 65.2828 10.1731 65.2828 10.7872C65.2828 11.0328 65.361 11.2338 65.5173 11.3901C65.6736 11.5352 65.869 11.6525 66.1035 11.7418C66.3491 11.8199 66.6896 11.9204 67.1251 12.0432C67.728 12.2107 68.2304 12.3838 68.6323 12.5624C69.0343 12.7411 69.3748 13.0146 69.6539 13.383C69.9331 13.7515 70.0726 14.2372 70.0726 14.8401C70.0726 15.3872 69.9107 15.8673 69.5869 16.2804C69.2632 16.6823 68.8445 16.9893 68.3309 17.2015C67.8285 17.4136 67.3093 17.5197 66.7734 17.5197C66.0365 17.5197 65.3498 17.3969 64.7134 17.1512C64.077 16.9056 63.5578 16.5092 63.1559 15.9622ZM76.4605 8.22482C77.5658 8.22482 78.3306 8.56535 78.7549 9.24641C79.1792 9.91631 79.3913 10.8486 79.3913 12.0432V16.3306C79.3913 16.6209 79.2964 16.8665 79.1066 17.0675C78.9168 17.2573 78.6767 17.3522 78.3864 17.3522C78.0961 17.3522 77.8561 17.2573 77.6663 17.0675C77.4765 16.8665 77.3816 16.6209 77.3816 16.3306V12.0432C77.3816 11.4292 77.2588 10.9491 77.0131 10.603C76.7787 10.2457 76.36 10.067 75.7571 10.067C75.1318 10.067 74.6406 10.2568 74.2833 10.6365C73.9372 11.0049 73.7641 11.4738 73.7641 12.0432V16.3306C73.7641 16.6209 73.6692 16.8665 73.4794 17.0675C73.2896 17.2573 73.0496 17.3522 72.7593 17.3522C72.469 17.3522 72.2289 17.2573 72.0391 17.0675C71.8493 16.8665 71.7544 16.6209 71.7544 16.3306V5.98065C71.7544 5.69036 71.8493 5.45031 72.0391 5.26051C72.2289 5.05954 72.469 4.95905 72.7593 4.95905C73.0496 4.95905 73.2896 5.05954 73.4794 5.26051C73.6692 5.45031 73.7641 5.69036 73.7641 5.98065V9.68185C74.0656 9.27991 74.4452 8.93938 74.903 8.66025C75.3719 8.36996 75.8911 8.22482 76.4605 8.22482Z" fill="white"/>
<path d="M2.57196 26.6754C2.77207 26.6754 2.9465 26.651 3.09524 26.6023C3.24398 26.551 3.36702 26.4793 3.46438 26.3873C3.56444 26.2927 3.63881 26.1791 3.68748 26.0466C3.73616 25.9114 3.7605 25.7613 3.7605 25.5963C3.7605 25.4395 3.73616 25.2975 3.68748 25.1704C3.63881 25.0433 3.56579 24.9351 3.46843 24.8459C3.37108 24.7566 3.24803 24.689 3.0993 24.6431C2.95056 24.5944 2.77478 24.5701 2.57196 24.5701H1.75661V26.6754H2.57196ZM2.57196 23.7263C2.96408 23.7263 3.30347 23.7723 3.59013 23.8642C3.87678 23.9562 4.11341 24.0846 4.30001 24.2496C4.48661 24.4146 4.62453 24.612 4.71377 24.8418C4.80571 25.0717 4.85169 25.3232 4.85169 25.5963C4.85169 25.8803 4.80436 26.1413 4.70971 26.3792C4.61506 26.6145 4.47308 26.8173 4.28378 26.9877C4.09448 27.1581 3.8565 27.2906 3.56985 27.3852C3.28589 27.4799 2.95326 27.5272 2.57196 27.5272H1.75661V29.5919H0.665419V23.7263H2.57196ZM7.46113 26.5172C7.66666 26.5172 7.84514 26.4915 7.99658 26.4401C8.15073 26.3887 8.27648 26.3184 8.37384 26.2291C8.4739 26.1372 8.54826 26.029 8.59694 25.9046C8.64562 25.7802 8.66996 25.6437 8.66996 25.4949C8.66996 25.1975 8.57125 24.9689 8.37384 24.8094C8.17913 24.6498 7.8803 24.5701 7.47736 24.5701H6.77965V26.5172H7.46113ZM10.2682 29.5919H9.28248C9.09589 29.5919 8.96067 29.5189 8.87684 29.3729L7.64367 27.4948C7.5977 27.4244 7.54632 27.3744 7.48953 27.3447C7.43544 27.3149 7.35431 27.3 7.24614 27.3H6.77965V29.5919H5.68846V23.7263H7.47736C7.87489 23.7263 8.21563 23.7682 8.49959 23.8521C8.78624 23.9332 9.02017 24.0481 9.20135 24.1969C9.38525 24.3456 9.52046 24.5241 9.607 24.7323C9.69354 24.9378 9.73681 25.165 9.73681 25.4138C9.73681 25.6112 9.70706 25.7978 9.64756 25.9736C9.59077 26.1494 9.50694 26.3089 9.39606 26.4522C9.28789 26.5956 9.15268 26.7213 8.99042 26.8295C8.83086 26.9377 8.64832 27.0229 8.4428 27.0851C8.51311 27.1256 8.57801 27.1743 8.63751 27.2311C8.697 27.2852 8.75109 27.3501 8.79976 27.4258L10.2682 29.5919ZM11.9969 24.5944V26.221H14.0495V27.0607H11.9969V28.7198H14.6011V29.5919H10.9016V23.7263H14.6011V24.5944H11.9969ZM21.9287 23.7263V29.5919H20.9673V25.8032C20.9673 25.6518 20.9754 25.4882 20.9916 25.3124L19.219 28.6427C19.1351 28.8023 19.0067 28.8821 18.8336 28.8821H18.6795C18.5064 28.8821 18.3779 28.8023 18.2941 28.6427L16.5011 25.3002C16.5093 25.3895 16.516 25.4773 16.5214 25.5639C16.5268 25.6504 16.5295 25.7302 16.5295 25.8032V29.5919H15.5682V23.7263H16.3916C16.4403 23.7263 16.4822 23.7277 16.5174 23.7304C16.5525 23.7331 16.5836 23.7398 16.6107 23.7506C16.6404 23.7615 16.6661 23.779 16.6877 23.8034C16.7121 23.8277 16.7351 23.8602 16.7567 23.9007L18.5131 27.1581C18.5591 27.2446 18.601 27.3339 18.6389 27.4258C18.6795 27.5177 18.7187 27.6124 18.7565 27.7098C18.7944 27.6097 18.8336 27.5137 18.8742 27.4217C18.9147 27.3271 18.958 27.2365 19.004 27.15L20.7361 23.9007C20.7577 23.8602 20.7807 23.8277 20.805 23.8034C20.8294 23.779 20.8551 23.7615 20.8821 23.7506C20.9119 23.7398 20.9443 23.7331 20.9795 23.7304C21.0146 23.7277 21.0566 23.7263 21.1052 23.7263H21.9287ZM24.3326 29.5919H23.2374V23.7263H24.3326V29.5919ZM28.0068 28.7117C28.2177 28.7117 28.4057 28.6765 28.5706 28.6062C28.7383 28.5359 28.8789 28.4372 28.9925 28.3101C29.1061 28.183 29.1926 28.0289 29.2521 27.8477C29.3143 27.6665 29.3454 27.4637 29.3454 27.2392V23.7263H30.4366V27.2392C30.4366 27.5881 30.3798 27.9112 30.2662 28.2087C30.1554 28.5035 29.9945 28.759 29.7835 28.9754C29.5753 29.189 29.3211 29.3567 29.0209 29.4784C28.7207 29.5974 28.3827 29.6569 28.0068 29.6569C27.6282 29.6569 27.2888 29.5974 26.9886 29.4784C26.6884 29.3567 26.4329 29.189 26.2219 28.9754C26.0137 28.759 25.8528 28.5035 25.7392 28.2087C25.6284 27.9112 25.5729 27.5881 25.5729 27.2392V23.7263H26.6641V27.2351C26.6641 27.4596 26.6938 27.6624 26.7533 27.8436C26.8155 28.0248 26.9034 28.1803 27.017 28.3101C27.1333 28.4372 27.2739 28.5359 27.4389 28.6062C27.6066 28.6765 27.7959 28.7117 28.0068 28.7117ZM38.0278 23.7263V29.5919H37.0664V25.8032C37.0664 25.6518 37.0745 25.4882 37.0907 25.3124L35.3181 28.6427C35.2342 28.8023 35.1058 28.8821 34.9327 28.8821H34.7785C34.6055 28.8821 34.477 28.8023 34.3932 28.6427L32.6002 25.3002C32.6083 25.3895 32.6151 25.4773 32.6205 25.5639C32.6259 25.6504 32.6286 25.7302 32.6286 25.8032V29.5919H31.6672V23.7263H32.4907C32.5394 23.7263 32.5813 23.7277 32.6164 23.7304C32.6516 23.7331 32.6827 23.7398 32.7097 23.7506C32.7395 23.7615 32.7652 23.779 32.7868 23.8034C32.8112 23.8277 32.8341 23.8602 32.8558 23.9007L34.6122 27.1581C34.6582 27.2446 34.7001 27.3339 34.738 27.4258C34.7785 27.5177 34.8178 27.6124 34.8556 27.7098C34.8935 27.6097 34.9327 27.5137 34.9733 27.4217C35.0138 27.3271 35.0571 27.2365 35.1031 27.15L36.8352 23.9007C36.8568 23.8602 36.8798 23.8277 36.9041 23.8034C36.9285 23.779 36.9542 23.7615 36.9812 23.7506C37.0109 23.7398 37.0434 23.7331 37.0786 23.7304C37.1137 23.7277 37.1556 23.7263 37.2043 23.7263H38.0278ZM44.139 27.3771L43.4251 25.426C43.3899 25.3394 43.3534 25.2367 43.3156 25.1177C43.2777 24.9987 43.2398 24.8702 43.202 24.7323C43.1668 24.8702 43.1303 25 43.0925 25.1217C43.0546 25.2407 43.0181 25.3448 42.9829 25.4341L42.273 27.3771H44.139ZM46.0658 29.5919H45.2221C45.1274 29.5919 45.0504 29.569 44.9909 29.523C44.9314 29.4743 44.8868 29.4148 44.857 29.3445L44.4189 28.1478H41.9891L41.551 29.3445C41.5294 29.4067 41.4874 29.4635 41.4252 29.5149C41.363 29.5663 41.286 29.5919 41.194 29.5919H40.3422L42.6503 23.7263H43.7618L46.0658 29.5919ZM50.5267 28.2087C50.5862 28.2087 50.639 28.2317 50.6849 28.2777L51.1149 28.7441C50.8769 29.0389 50.5835 29.2647 50.2347 29.4216C49.8885 29.5784 49.4721 29.6569 48.9853 29.6569C48.5499 29.6569 48.1578 29.5825 47.8089 29.4337C47.4628 29.285 47.1666 29.0781 46.9205 28.8131C46.6745 28.5481 46.4851 28.2317 46.3526 27.8639C46.2228 27.4961 46.1579 27.0945 46.1579 26.6591C46.1579 26.2183 46.2282 25.8154 46.3689 25.4503C46.5095 25.0825 46.7069 24.7661 46.9611 24.5011C47.218 24.2361 47.5236 24.0305 47.8779 23.8845C48.2321 23.7358 48.6243 23.6614 49.0542 23.6614C49.4815 23.6614 49.8601 23.7317 50.1901 23.8723C50.5227 24.013 50.8053 24.1969 51.0379 24.424L50.6728 24.9311C50.6511 24.9635 50.6227 24.9919 50.5876 25.0163C50.5551 25.0406 50.5092 25.0528 50.4497 25.0528C50.4091 25.0528 50.3672 25.042 50.3239 25.0203C50.2806 24.996 50.2333 24.9676 50.1819 24.9351C50.1306 24.9 50.0711 24.8621 50.0035 24.8216C49.9358 24.781 49.8574 24.7445 49.7682 24.712C49.6789 24.6769 49.5748 24.6485 49.4558 24.6268C49.3395 24.6025 49.2043 24.5903 49.0502 24.5903C48.7879 24.5903 48.5472 24.6377 48.3281 24.7323C48.1118 24.8243 47.9252 24.9595 47.7683 25.138C47.6115 25.3137 47.4898 25.5301 47.4033 25.787C47.3167 26.0412 47.2735 26.3319 47.2735 26.6591C47.2735 26.9891 47.3194 27.2825 47.4114 27.5394C47.506 27.7963 47.6331 28.0126 47.7927 28.1884C47.9522 28.3642 48.1402 28.4994 48.3565 28.5941C48.5729 28.686 48.8054 28.732 49.0542 28.732C49.203 28.732 49.3368 28.7239 49.4558 28.7076C49.5775 28.6914 49.6884 28.6657 49.7885 28.6306C49.8912 28.5954 49.9872 28.5508 50.0765 28.4967C50.1684 28.4399 50.259 28.371 50.3483 28.2898C50.3753 28.2655 50.4037 28.2466 50.4334 28.233C50.4632 28.2168 50.4943 28.2087 50.5267 28.2087ZM55.7637 28.2087C55.8232 28.2087 55.8759 28.2317 55.9219 28.2777L56.3519 28.7441C56.1139 29.0389 55.8205 29.2647 55.4716 29.4216C55.1255 29.5784 54.709 29.6569 54.2222 29.6569C53.7868 29.6569 53.3947 29.5825 53.0459 29.4337C52.6997 29.285 52.4036 29.0781 52.1575 28.8131C51.9114 28.5481 51.7221 28.2317 51.5896 27.8639C51.4598 27.4961 51.3949 27.0945 51.3949 26.6591C51.3949 26.2183 51.4652 25.8154 51.6058 25.4503C51.7464 25.0825 51.9439 24.7661 52.1981 24.5011C52.455 24.2361 52.7606 24.0305 53.1148 23.8845C53.4691 23.7358 53.8612 23.6614 54.2912 23.6614C54.7185 23.6614 55.0971 23.7317 55.427 23.8723C55.7596 24.013 56.0422 24.1969 56.2748 24.424L55.9097 24.9311C55.8881 24.9635 55.8597 24.9919 55.8245 25.0163C55.7921 25.0406 55.7461 25.0528 55.6866 25.0528C55.6461 25.0528 55.6041 25.042 55.5609 25.0203C55.5176 24.996 55.4703 24.9676 55.4189 24.9351C55.3675 24.9 55.308 24.8621 55.2404 24.8216C55.1728 24.781 55.0944 24.7445 55.0051 24.712C54.9159 24.6769 54.8118 24.6485 54.6928 24.6268C54.5765 24.6025 54.4413 24.5903 54.2871 24.5903C54.0248 24.5903 53.7841 24.6377 53.5651 24.7323C53.3487 24.8243 53.1621 24.9595 53.0053 25.138C52.8484 25.3137 52.7268 25.5301 52.6402 25.787C52.5537 26.0412 52.5104 26.3319 52.5104 26.6591C52.5104 26.9891 52.5564 27.2825 52.6483 27.5394C52.743 27.7963 52.8701 28.0126 53.0296 28.1884C53.1892 28.3642 53.3771 28.4994 53.5935 28.5941C53.8098 28.686 54.0424 28.732 54.2912 28.732C54.4399 28.732 54.5738 28.7239 54.6928 28.7076C54.8145 28.6914 54.9254 28.6657 55.0254 28.6306C55.1282 28.5954 55.2242 28.5508 55.3134 28.4967C55.4054 28.4399 55.496 28.371 55.5852 28.2898C55.6122 28.2655 55.6406 28.2466 55.6704 28.233C55.7001 28.2168 55.7312 28.2087 55.7637 28.2087ZM62.5664 26.6591C62.5664 27.0891 62.4948 27.488 62.3515 27.8558C62.2108 28.2209 62.0107 28.5373 61.7511 28.805C61.4915 29.0727 61.1791 29.2823 60.8141 29.4337C60.449 29.5825 60.0433 29.6569 59.5971 29.6569C59.1536 29.6569 58.7493 29.5825 58.3842 29.4337C58.0191 29.2823 57.7054 29.0727 57.4431 28.805C57.1835 28.5373 56.982 28.2209 56.8387 27.8558C56.6954 27.488 56.6237 27.0891 56.6237 26.6591C56.6237 26.2291 56.6954 25.8316 56.8387 25.4665C56.982 25.0987 57.1835 24.781 57.4431 24.5133C57.7054 24.2455 58.0191 24.0373 58.3842 23.8886C58.7493 23.7371 59.1536 23.6614 59.5971 23.6614C59.8946 23.6614 60.1745 23.6966 60.4368 23.7669C60.6991 23.8345 60.9398 23.9318 61.1589 24.0589C61.3779 24.1833 61.574 24.3361 61.747 24.5173C61.9228 24.6958 62.0716 24.8959 62.1932 25.1177C62.3149 25.3394 62.4069 25.5801 62.4691 25.8397C62.534 26.0993 62.5664 26.3725 62.5664 26.6591ZM61.4509 26.6591C61.4509 26.3373 61.4076 26.0493 61.3211 25.7951C61.2346 25.5382 61.1115 25.3205 60.952 25.142C60.7924 24.9635 60.5977 24.827 60.3678 24.7323C60.1407 24.6377 59.8838 24.5903 59.5971 24.5903C59.3105 24.5903 59.0522 24.6377 58.8223 24.7323C58.5952 24.827 58.4005 24.9635 58.2382 25.142C58.0786 25.3205 57.9556 25.5382 57.8691 25.7951C57.7825 26.0493 57.7393 26.3373 57.7393 26.6591C57.7393 26.9809 57.7825 27.2703 57.8691 27.5272C57.9556 27.7814 58.0786 27.9978 58.2382 28.1762C58.4005 28.352 58.5952 28.4872 58.8223 28.5819C59.0522 28.6765 59.3105 28.7239 59.5971 28.7239C59.8838 28.7239 60.1407 28.6765 60.3678 28.5819C60.5977 28.4872 60.7924 28.352 60.952 28.1762C61.1115 27.9978 61.2346 27.7814 61.3211 27.5272C61.4076 27.2703 61.4509 26.9809 61.4509 26.6591ZM65.8856 28.7117C66.0965 28.7117 66.2845 28.6765 66.4494 28.6062C66.6171 28.5359 66.7577 28.4372 66.8713 28.3101C66.9849 28.183 67.0714 28.0289 67.1309 27.8477C67.1931 27.6665 67.2242 27.4637 67.2242 27.2392V23.7263H68.3154V27.2392C68.3154 27.5881 68.2586 27.9112 68.145 28.2087C68.0341 28.5035 67.8732 28.759 67.6623 28.9754C67.4541 29.189 67.1999 29.3567 66.8997 29.4784C66.5995 29.5974 66.2615 29.6569 65.8856 29.6569C65.507 29.6569 65.1676 29.5974 64.8674 29.4784C64.5672 29.3567 64.3117 29.189 64.1007 28.9754C63.8925 28.759 63.7316 28.5035 63.618 28.2087C63.5071 27.9112 63.4517 27.5881 63.4517 27.2392V23.7263H64.5429V27.2351C64.5429 27.4596 64.5726 27.6624 64.6321 27.8436C64.6943 28.0248 64.7822 28.1803 64.8958 28.3101C65.0121 28.4372 65.1527 28.5359 65.3177 28.6062C65.4853 28.6765 65.6746 28.7117 65.8856 28.7117ZM74.4909 23.7263V29.5919H73.9311C73.8445 29.5919 73.7715 29.5784 73.712 29.5514C73.6552 29.5216 73.5998 29.473 73.5457 29.4054L70.4831 25.4949C70.4993 25.6734 70.5074 25.8384 70.5074 25.9898V29.5919H69.546V23.7263H70.118C70.164 23.7263 70.2032 23.729 70.2356 23.7344C70.2708 23.7371 70.3005 23.7452 70.3249 23.7588C70.3519 23.7696 70.3776 23.7872 70.4019 23.8115C70.4263 23.8331 70.4533 23.8629 70.4831 23.9007L73.5579 27.8274C73.5498 27.7327 73.543 27.6394 73.5376 27.5475C73.5322 27.4555 73.5295 27.3704 73.5295 27.2919V23.7263H74.4909ZM79.8941 24.6228H78.1255V29.5919H77.0343V24.6228H75.2657V23.7263H79.8941V24.6228Z" fill="white" fill-opacity="0.39"/>
</svg>
