<svg width="105" height="110" viewBox="0 0 105 110" fill="none" xmlns="http://www.w3.org/2000/svg">
<path d="M66.4698 23.16L66.2504 24.2091L67.3112 24.0558C67.8325 23.9805 68.3659 23.9415 68.9089 23.9415C75.0233 23.9415 79.98 28.8982 79.98 35.0126C79.98 41.1269 75.0233 46.0836 68.9089 46.0836H34.7925C28.6781 46.0836 23.7214 41.1269 23.7214 35.0126C23.7214 31.7889 25.0983 28.8878 27.2983 26.8635C29.2706 25.0487 31.9014 23.9415 34.7925 23.9415H36.3272C38.5216 23.9415 40.4052 22.9519 41.8393 21.7783C43.273 20.6051 44.3179 19.2003 44.853 18.2402L44.8993 18.1572L44.9234 18.0652C46.1688 13.3139 50.4929 9.80963 55.6335 9.80963C61.7479 9.80963 66.7046 14.7663 66.7046 20.8807C66.7046 21.6627 66.6236 22.425 66.4698 23.16Z" stroke="#197BBD" stroke-width="1.5"/>
<path d="M60.7255 61.8886V52.3981" stroke="#197BBD" stroke-width="1.5" stroke-linecap="round" stroke-linejoin="round"/>
<path d="M55.9813 57.1434L60.7266 52.3981L65.4718 57.1434" stroke="#197BBD" stroke-width="1.5" stroke-linecap="round" stroke-linejoin="round"/>
<path d="M43.7793 44.2642L48.5245 39.519L53.2698 44.2642" stroke="#197BBD" stroke-width="0.683017" stroke-linecap="round" stroke-linejoin="round"/>
<g clip-path="url(#clip0)">
<path d="M45.6329 59.9356L37.0048 68.5637C36.4753 69.0932 36.4753 69.9516 37.0048 70.4811L42.7568 76.2332C43.2863 76.7627 44.1447 76.7627 44.6742 76.2332L53.3023 67.6051C53.8318 67.0756 53.8318 66.2172 53.3023 65.6877L47.5503 59.9356C47.0208 59.4062 46.1624 59.4062 45.6329 59.9356Z" stroke="#197BBD" stroke-width="1.5" stroke-linecap="round" stroke-linejoin="round"/>
<path d="M38.9224 72.3981L49.4679 61.8526" stroke="#197BBD" stroke-width="1.5" stroke-linecap="round" stroke-linejoin="round"/>
</g>
<circle cx="37.8462" cy="17.4089" r="11.7215" transform="rotate(-30 37.8462 17.4089)" stroke="#197BBD" stroke-width="1.5"/>
<path d="M41.5465 16.9124C41.7647 17.2903 41.8636 17.6986 41.8432 18.1375C41.831 18.5716 41.6994 18.9981 41.4483 19.4168C41.2055 19.8308 40.8601 20.1999 40.4121 20.5243L41.2159 21.9165C41.2776 22.0232 41.2904 22.1308 41.2544 22.2392C41.2314 22.3511 41.1665 22.4378 41.0597 22.4995C40.9529 22.5611 40.8412 22.5763 40.7246 22.5451C40.621 22.5173 40.5383 22.45 40.4767 22.3432L39.68 20.9634C39.1436 21.2293 38.6132 21.3822 38.0887 21.4222C37.5642 21.4622 36.9999 21.4047 36.3957 21.2497C36.2497 21.2245 36.1435 21.1544 36.0771 21.0394C36.0202 20.9409 36.005 20.8292 36.0315 20.7044C36.0662 20.5748 36.1329 20.4816 36.2314 20.4247C36.33 20.3678 36.4441 20.3567 36.5736 20.3914C37.509 20.6837 38.4045 20.632 39.2604 20.2365L37.2687 16.7868C36.3591 16.9944 35.597 17.0401 34.9824 16.924C34.3678 16.808 33.8637 16.4091 33.4701 15.7273C33.124 15.1277 33.0524 14.5011 33.2553 13.8473C33.4535 13.1853 33.8951 12.6127 34.5799 12.1297L34.0322 11.1811C33.9706 11.0743 33.9536 10.9691 33.9814 10.8654C34.0126 10.7488 34.0817 10.6597 34.1884 10.5981C34.2952 10.5364 34.4028 10.5236 34.5112 10.5596C34.623 10.5826 34.7098 10.6475 34.7714 10.7543L35.312 11.6906C35.7711 11.4804 36.2369 11.3483 36.7096 11.2944C37.1822 11.2406 37.6118 11.2828 37.9983 11.421C38.2021 11.4895 38.3324 11.5731 38.3893 11.6716C38.4415 11.762 38.4502 11.8719 38.4155 12.0015C38.3761 12.1228 38.3071 12.212 38.2085 12.2689C38.1264 12.3163 38.0399 12.3278 37.9493 12.3035C37.6276 12.1826 37.2697 12.1319 36.8757 12.1513C36.4817 12.1707 36.1027 12.2635 35.7388 12.4298L37.6736 15.781C38.2729 15.643 38.7955 15.5713 39.2413 15.5658C39.6906 15.5473 40.1128 15.6431 40.5078 15.853C40.9063 16.0501 41.2525 16.4032 41.5465 16.9124ZM34.2198 15.2617C34.4569 15.6724 34.7862 15.9203 35.2077 16.0055C35.6375 16.0859 36.1656 16.0712 36.7921 15.9613L34.9996 12.8566C34.54 13.1986 34.2382 13.5864 34.0943 14.02C33.9456 14.4453 33.9874 14.8592 34.2198 15.2617ZM39.9925 19.7974C40.4391 19.4519 40.7385 19.06 40.8907 18.6217C41.0381 18.1752 40.998 17.7548 40.7704 17.3606C40.5156 16.9382 40.175 16.6803 39.7488 16.5869C39.3178 16.4853 38.7825 16.4877 38.143 16.5941L39.9925 19.7974Z" fill="#197BBD"/>
<path d="M22.9714 35.0113C22.9714 41.5399 28.2639 46.8324 34.7925 46.8324H68.9089C75.4375 46.8324 80.73 41.5399 80.73 35.0113C80.73 28.4827 75.4375 23.1903 68.9089 23.1903C68.3299 23.1903 67.7607 23.2319 67.2039 23.3123C67.3682 22.5272 67.4546 21.7134 67.4546 20.8794C67.4546 14.3508 62.1621 9.05838 55.6335 9.05838C50.1435 9.05838 45.5276 12.8009 44.1979 17.8738C43.2101 19.6459 40.2531 23.1903 36.3272 23.1903H34.7925C31.706 23.1903 28.8958 24.3732 26.7905 26.3103C24.4426 28.4707 22.9714 31.5692 22.9714 35.0113Z" fill="white"/>
<path d="M66.4698 23.1587L66.2504 24.2078L67.3112 24.0546C67.8325 23.9793 68.3659 23.9403 68.9089 23.9403C75.0233 23.9403 79.98 28.8969 79.98 35.0113C79.98 41.1257 75.0233 46.0824 68.9089 46.0824H34.7925C28.6781 46.0824 23.7214 41.1257 23.7214 35.0113C23.7214 31.7876 25.0983 28.8866 27.2983 26.8622C29.2706 25.0474 31.9014 23.9403 34.7925 23.9403H36.3272C38.5216 23.9403 40.4052 22.9506 41.8393 21.777C43.273 20.6038 44.3179 19.1991 44.853 18.239L44.8993 18.1559L44.9234 18.064C46.1688 13.3127 50.4929 9.80838 55.6335 9.80838C61.7479 9.80838 66.7046 14.7651 66.7046 20.8794C66.7046 21.6615 66.6236 22.4238 66.4698 23.1587Z" stroke="#197BBD" stroke-width="1.5"/>
<path d="M89.0373 14.0252C88.8861 15.6606 88.2724 17.2191 87.2678 18.5184C86.2633 19.8177 84.9095 20.804 83.3648 21.3619C81.8201 21.9199 80.1485 22.0264 78.5456 21.6689C76.9426 21.3115 75.4746 20.505 74.3132 19.3436C73.1519 18.1823 72.3454 16.7143 71.988 15.1113C71.6305 13.5084 71.737 11.8367 72.295 10.2921C72.8529 8.74743 73.8392 7.39361 75.1385 6.38905C76.4378 5.38449 77.9963 4.77074 79.6317 4.61961C78.6742 5.91494 78.2135 7.5109 78.3333 9.11722C78.453 10.7235 79.1454 12.2335 80.2844 13.3725C81.4234 14.5115 82.9334 15.2038 84.5397 15.3236C86.146 15.4434 87.7419 14.9827 89.0373 14.0252V14.0252Z" stroke="#197BBD" stroke-width="1.5" stroke-linecap="round" stroke-linejoin="round"/>
<rect x="40.3898" y="38.1722" width="16.2694" height="13.4883" fill="white"/>
<path d="M48.5246 49.0082V39.5177" stroke="#197BBD" stroke-width="1.5" stroke-linecap="round" stroke-linejoin="round"/>
<path d="M48.5246 47.6627V38.1722" stroke="#197BBD" stroke-width="1.5" stroke-linecap="round" stroke-linejoin="round"/>
<path d="M43.7791 42.9174L48.5243 38.1722L53.2696 42.9174" stroke="#197BBD" stroke-width="1.5" stroke-linecap="round" stroke-linejoin="round"/>
<path d="M17.9857 92.9397C17.9857 91.5424 19.0283 90.4058 20.4256 90.4058C21.6092 90.4058 22.1946 91.1237 22.1946 91.1237H22.9936C22.9936 91.1237 22.2758 89.7905 20.4256 89.7905C18.6865 89.7905 17.2764 91.2006 17.2764 92.9397C17.2764 94.6788 18.6865 96.0889 20.4256 96.0889C22.0365 96.0889 23.532 94.8497 23.3312 92.5637H20.5538V93.179H22.6475C22.6475 94.4737 21.7417 95.4736 20.4256 95.4736C19.0283 95.4736 17.9857 94.337 17.9857 92.9397ZM24.6174 96.0034H25.2754V91.7048H24.6174V96.0034ZM24.5063 90.4913C24.5063 90.7348 24.7071 90.9271 24.9464 90.9271C25.1857 90.9271 25.3865 90.7348 25.3865 90.4913C25.3865 90.252 25.1857 90.0554 24.9464 90.0554C24.7071 90.0554 24.5063 90.252 24.5063 90.4913ZM28.4075 95.2087L26.9291 91.7048H26.1984L28.07 96.0034H28.7451L30.6167 91.7048H29.886L28.4075 95.2087ZM33.2788 96.0889C34.8256 96.0889 35.3298 94.9267 35.3298 94.9267H34.5906C34.5906 94.9267 34.1846 95.5249 33.2788 95.5249C32.4968 95.5249 31.8516 94.9608 31.7234 94.149H35.5306C35.6118 92.5594 34.5137 91.6194 33.2788 91.6194C32.0439 91.6194 31.044 92.5338 31.044 93.8541C31.044 95.1745 32.0439 96.0889 33.2788 96.0889ZM33.2788 92.1834C34.065 92.1834 34.7188 92.7602 34.8341 93.5849H31.7191C31.8388 92.7602 32.4882 92.1834 33.2788 92.1834ZM39.5387 98.2767H40.2138L43.0767 91.7048H42.3461L40.8676 95.2087L39.3891 91.7048H38.6585L40.53 96.0034L39.5387 98.2767ZM43.7177 93.8541C43.7177 95.1745 44.7176 96.0889 45.9525 96.0889C47.1874 96.0889 48.1872 95.1745 48.1872 93.8541C48.1872 92.5338 47.1874 91.6194 45.9525 91.6194C44.7176 91.6194 43.7177 92.5338 43.7177 93.8541ZM44.3757 93.8541C44.3757 92.8884 45.0808 92.1834 45.9525 92.1834C46.8242 92.1834 47.5292 92.8884 47.5292 93.8541C47.5292 94.8198 46.8242 95.5249 45.9525 95.5249C45.0808 95.5249 44.3757 94.8198 44.3757 93.8541ZM49.2128 93.8541C49.2128 95.2172 49.8281 96.0889 51.0972 96.0889C52.221 96.0889 52.4731 95.23 52.4944 95.183V96.0034H53.1525V91.7048H52.4944V93.8541C52.4944 94.7728 52.144 95.5249 51.1826 95.5249C50.2212 95.5249 49.8708 94.7728 49.8708 93.8541V91.7048H49.2128V93.8541ZM56.8828 91.7048C56.8828 91.7048 56.5709 91.6194 56.2889 91.6194C55.6394 91.6151 55.1693 91.9868 55.007 92.5252V91.7048H54.3489V96.0034H55.007V93.8541C55.007 92.9141 55.3616 92.1877 56.2846 92.1834C56.5794 92.1834 56.8828 92.256 56.8828 92.256V91.7048ZM67.1679 93.7687C67.1679 92.5338 66.6551 91.6194 65.3861 91.6194C64.2623 91.6194 63.8991 92.5936 63.8991 92.5936C63.8991 92.5936 63.5829 91.6194 62.3266 91.6194C61.3481 91.6194 61.0703 92.3928 61.049 92.4398V91.7048H60.3909V96.0034H61.049V93.8541C61.049 92.9354 61.331 92.1919 62.2497 92.1919C63.1684 92.1919 63.4504 92.9354 63.4504 93.8541V96.0034H64.1084V93.8541C64.1084 92.9354 64.3905 92.1919 65.3092 92.1919C66.2278 92.1919 66.5099 92.9354 66.5099 93.8541V96.0034H67.1679V93.7687ZM68.1934 93.8541C68.1934 95.1745 69.1933 96.0889 70.4282 96.0889C71.6631 96.0889 72.663 95.1745 72.663 93.8541C72.663 92.5338 71.6631 91.6194 70.4282 91.6194C69.1933 91.6194 68.1934 92.5338 68.1934 93.8541ZM68.8515 93.8541C68.8515 92.8884 69.5565 92.1834 70.4282 92.1834C71.2999 92.1834 72.0049 92.8884 72.0049 93.8541C72.0049 94.8198 71.2999 95.5249 70.4282 95.5249C69.5565 95.5249 68.8515 94.8198 68.8515 93.8541ZM77.6282 93.8541C77.6282 92.491 77.0129 91.6194 75.7438 91.6194C74.62 91.6194 74.3679 92.4782 74.3465 92.5252V91.7048H73.6885V96.0034H74.3465V93.8541C74.3465 92.9354 74.6969 92.1834 75.6584 92.1834C76.6198 92.1834 76.9702 92.9354 76.9702 93.8541V96.0034H77.6282V93.8541ZM80.8885 96.0889C82.4353 96.0889 82.9395 94.9267 82.9395 94.9267H82.2003C82.2003 94.9267 81.7944 95.5249 80.8885 95.5249C80.1065 95.5249 79.4613 94.9608 79.3331 94.149H83.1404C83.2216 92.5594 82.1234 91.6194 80.8885 91.6194C79.6536 91.6194 78.6537 92.5338 78.6537 93.8541C78.6537 95.1745 79.6536 96.0889 80.8885 96.0889ZM80.8885 92.1834C81.6747 92.1834 82.3285 92.7602 82.4439 93.5849H79.3289C79.4485 92.7602 80.098 92.1834 80.8885 92.1834ZM84.6701 98.2767H85.3452L88.2081 91.7048H87.4775L85.999 95.2087L84.5206 91.7048H83.7899L85.6614 96.0034L84.6701 98.2767ZM5.18806 103.606C5.18806 103.606 4.73085 102.619 3.56859 102.619C2.37643 102.619 1.37655 103.577 1.37655 104.854C1.37655 106.132 2.37643 107.089 3.56859 107.089C4.73085 107.089 5.18806 106.102 5.18806 106.102V107.003H5.8461V102.705H5.18806V103.606ZM5.18806 104.854C5.18806 105.82 4.48302 106.525 3.61132 106.525C2.73963 106.525 2.03459 105.82 2.03459 104.854C2.03459 103.888 2.73963 103.183 3.61132 103.183C4.48302 103.183 5.18806 103.888 5.18806 104.854ZM8.39708 105.986L7.38011 102.705H6.65797L8.08515 107.003H8.70047L9.73026 103.709L10.7601 107.003H11.3754L12.8025 102.705H12.0804L11.0634 105.986L10.0379 102.705H9.4226L8.39708 105.986ZM15.4646 107.089C17.0114 107.089 17.5157 105.927 17.5157 105.927H16.7764C16.7764 105.927 16.3705 106.525 15.4646 106.525C14.6827 106.525 14.0374 105.961 13.9093 105.149H17.7165C17.7977 103.559 16.6995 102.619 15.4646 102.619C14.2297 102.619 13.2298 103.534 13.2298 104.854C13.2298 106.174 14.2297 107.089 15.4646 107.089ZM15.4646 103.183C16.2509 103.183 16.9046 103.76 17.02 104.585H13.905C14.0246 103.76 14.6741 103.183 15.4646 103.183ZM20.2974 106.525C19.3701 106.525 19.1779 106.012 19.1779 106.012H18.4942C18.4942 106.012 18.6138 107.089 20.2974 107.089C21.4169 107.089 22.1262 106.653 22.1262 105.837C22.1262 104.961 21.4126 104.619 20.2974 104.495C19.5453 104.41 19.2505 104.192 19.2505 103.824C19.2505 103.465 19.5411 103.183 20.2974 103.183C21.1605 103.183 21.3229 103.696 21.3229 103.696H22.0066C22.0066 103.696 21.8314 102.619 20.2974 102.619C19.1138 102.619 18.5754 103.183 18.5754 103.824C18.5754 104.593 19.1907 104.952 20.2974 105.089C21.2246 105.205 21.4511 105.397 21.4511 105.837C21.4511 106.277 21.011 106.525 20.2974 106.525ZM22.8954 104.854C22.8954 106.174 23.8952 107.089 25.1301 107.089C26.365 107.089 27.3649 106.174 27.3649 104.854C27.3649 103.534 26.365 102.619 25.1301 102.619C23.8952 102.619 22.8954 103.534 22.8954 104.854ZM23.5534 104.854C23.5534 103.888 24.2585 103.183 25.1301 103.183C26.0018 103.183 26.7069 103.888 26.7069 104.854C26.7069 105.82 26.0018 106.525 25.1301 106.525C24.2585 106.525 23.5534 105.82 23.5534 104.854ZM35.1674 104.769C35.1674 103.534 34.6547 102.619 33.3856 102.619C32.2618 102.619 31.8986 103.594 31.8986 103.594C31.8986 103.594 31.5824 102.619 30.3261 102.619C29.3476 102.619 29.0698 103.393 29.0485 103.44V102.705H28.3904V107.003H29.0485V104.854C29.0485 103.935 29.3305 103.192 30.2492 103.192C31.1679 103.192 31.4499 103.935 31.4499 104.854V107.003H32.108V104.854C32.108 103.935 32.39 103.192 33.3087 103.192C34.2274 103.192 34.5094 103.935 34.5094 104.854V107.003H35.1674V104.769ZM38.4277 107.089C39.9745 107.089 40.4788 105.927 40.4788 105.927H39.7395C39.7395 105.927 39.3336 106.525 38.4277 106.525C37.6458 106.525 37.0005 105.961 36.8723 105.149H40.6796C40.7608 103.559 39.6626 102.619 38.4277 102.619C37.1928 102.619 36.1929 103.534 36.1929 104.854C36.1929 106.174 37.1928 107.089 38.4277 107.089ZM38.4277 103.183C39.214 103.183 39.8677 103.76 39.9831 104.585H36.8681C36.9877 103.76 37.6372 103.183 38.4277 103.183ZM45.7388 106.525C44.8116 106.525 44.6193 106.012 44.6193 106.012H43.9356C43.9356 106.012 44.0553 107.089 45.7388 107.089C46.8583 107.089 47.5677 106.653 47.5677 105.837C47.5677 104.961 46.8541 104.619 45.7388 104.495C44.9868 104.41 44.6919 104.192 44.6919 103.824C44.6919 103.465 44.9825 103.183 45.7388 103.183C46.602 103.183 46.7643 103.696 46.7643 103.696H47.448C47.448 103.696 47.2728 102.619 45.7388 102.619C44.5552 102.619 44.0168 103.183 44.0168 103.824C44.0168 104.593 44.6321 104.952 45.7388 105.089C46.6661 105.205 46.8925 105.397 46.8925 105.837C46.8925 106.277 46.4524 106.525 45.7388 106.525ZM49.1658 102.705H48.5077V109.277H49.1658V106.106C49.1871 106.153 49.6529 107.089 50.7852 107.089C51.9774 107.089 52.9773 106.132 52.9773 104.854C52.9773 103.577 51.9774 102.619 50.7852 102.619C49.6529 102.619 49.1871 103.559 49.1658 103.606V102.705ZM49.1658 104.854C49.1658 103.888 49.8708 103.183 50.7425 103.183C51.6142 103.183 52.3192 103.888 52.3192 104.854C52.3192 105.82 51.6142 106.525 50.7425 106.525C49.8708 106.525 49.1658 105.82 49.1658 104.854ZM57.6434 103.606C57.6434 103.606 57.1862 102.619 56.0239 102.619C54.8318 102.619 53.8319 103.577 53.8319 104.854C53.8319 106.132 54.8318 107.089 56.0239 107.089C57.1862 107.089 57.6434 106.102 57.6434 106.102V107.003H58.3014V102.705H57.6434V103.606ZM57.6434 104.854C57.6434 105.82 56.9383 106.525 56.0667 106.525C55.195 106.525 54.4899 105.82 54.4899 104.854C54.4899 103.888 55.195 103.183 56.0667 103.183C56.9383 103.183 57.6434 103.888 57.6434 104.854ZM63.5273 103.782C63.5273 103.782 63.0701 102.619 61.5617 102.619C60.3268 102.619 59.327 103.577 59.327 104.854C59.327 106.132 60.3268 107.089 61.5617 107.089C63.0701 107.089 63.5273 105.927 63.5273 105.927H62.7881C62.7881 105.927 62.4292 106.525 61.5617 106.525C60.69 106.525 59.985 105.82 59.985 104.854C59.985 103.888 60.69 103.183 61.5617 103.183C62.4292 103.183 62.7881 103.782 62.7881 103.782H63.5273ZM66.4244 107.089C67.9712 107.089 68.4754 105.927 68.4754 105.927H67.7362C67.7362 105.927 67.3303 106.525 66.4244 106.525C65.6424 106.525 64.9972 105.961 64.869 105.149H68.6763C68.7575 103.559 67.6593 102.619 66.4244 102.619C65.1895 102.619 64.1896 103.534 64.1896 104.854C64.1896 106.174 65.1895 107.089 66.4244 107.089ZM66.4244 103.183C67.2106 103.183 67.8644 103.76 67.9798 104.585H64.8648C64.9844 103.76 65.6339 103.183 66.4244 103.183ZM72.2998 107.003H72.9578V102.705H72.2998V107.003ZM72.1887 101.491C72.1887 101.735 72.3895 101.927 72.6288 101.927C72.8681 101.927 73.0689 101.735 73.0689 101.491C73.0689 101.252 72.8681 101.055 72.6288 101.055C72.3895 101.055 72.1887 101.252 72.1887 101.491ZM78.2051 104.854C78.2051 103.491 77.5898 102.619 76.3207 102.619C75.1969 102.619 74.9448 103.478 74.9234 103.525V102.705H74.2654V107.003H74.9234V104.854C74.9234 103.935 75.2738 103.183 76.2352 103.183C77.1966 103.183 77.547 103.935 77.547 104.854V107.003H78.2051V104.854ZM85.9093 103.782C85.9093 103.782 85.4521 102.619 83.9437 102.619C82.7088 102.619 81.7089 103.577 81.7089 104.854C81.7089 106.132 82.7088 107.089 83.9437 107.089C85.4521 107.089 85.9093 105.927 85.9093 105.927H85.17C85.17 105.927 84.8111 106.525 83.9437 106.525C83.072 106.525 82.367 105.82 82.367 104.854C82.367 103.888 83.072 103.183 83.9437 103.183C84.8111 103.183 85.17 103.782 85.17 103.782H85.9093ZM87.5971 107.003V100.526H86.9391V107.003H87.5971ZM88.7081 104.854C88.7081 106.174 89.708 107.089 90.9429 107.089C92.1778 107.089 93.1776 106.174 93.1776 104.854C93.1776 103.534 92.1778 102.619 90.9429 102.619C89.708 102.619 88.7081 103.534 88.7081 104.854ZM89.3661 104.854C89.3661 103.888 90.0712 103.183 90.9429 103.183C91.8146 103.183 92.5196 103.888 92.5196 104.854C92.5196 105.82 91.8146 106.525 90.9429 106.525C90.0712 106.525 89.3661 105.82 89.3661 104.854ZM94.2032 104.854C94.2032 106.217 94.8185 107.089 96.0876 107.089C97.2114 107.089 97.4635 106.23 97.4848 106.183V107.003H98.1429V102.705H97.4848V104.854C97.4848 105.773 97.1344 106.525 96.173 106.525C95.2116 106.525 94.8612 105.773 94.8612 104.854V102.705H94.2032V104.854ZM102.98 103.606C102.959 103.559 102.493 102.619 101.36 102.619C100.168 102.619 99.1684 103.577 99.1684 104.854C99.1684 106.132 100.168 107.089 101.36 107.089C102.493 107.089 102.959 106.153 102.98 106.106V107.003H103.638V100.526H102.98V103.606ZM102.98 104.854C102.98 105.82 102.275 106.525 101.403 106.525C100.531 106.525 99.8264 105.82 99.8264 104.854C99.8264 103.888 100.531 103.183 101.403 103.183C102.275 103.183 102.98 103.888 102.98 104.854Z" fill="#404040"/>
<defs>
<clipPath id="clip0">
<rect width="16.2694" height="16.2694" fill="white" transform="translate(33.6501 68.0842) rotate(-45)"/>
</clipPath>
</defs>
</svg>
