<svg width="136" height="29" viewBox="0 0 136 29" fill="none" xmlns="http://www.w3.org/2000/svg">
<path d="M59.8975 11.8515C60.8465 11.8515 61.6113 12.0022 62.1919 12.3036C62.7725 12.5939 63.0628 12.9847 63.0628 13.476C63.0628 13.7216 62.9902 13.9393 62.8451 14.1291C62.6999 14.3078 62.5101 14.3971 62.2756 14.3971C62.097 14.3971 61.9519 14.3748 61.8402 14.3301C61.7286 14.2743 61.6169 14.2073 61.5053 14.1291C61.4048 14.0398 61.3043 13.9672 61.2038 13.9114C61.0921 13.8556 60.9247 13.8053 60.7014 13.7607C60.4892 13.716 60.3162 13.6937 60.1822 13.6937C59.3448 13.6937 58.6861 13.9561 58.206 14.4808C57.7371 14.9944 57.5026 15.6699 57.5026 16.5073C57.5026 17.3111 57.7426 17.981 58.2227 18.517C58.7028 19.0417 59.3169 19.3041 60.065 19.3041C60.6121 19.3041 61.0196 19.2371 61.2875 19.1031C61.3545 19.0696 61.4438 19.0138 61.5555 18.9357C61.6783 18.8463 61.79 18.7793 61.8904 18.7347C61.9909 18.69 62.1137 18.6677 62.2589 18.6677C62.538 18.6677 62.7557 18.757 62.912 18.9357C63.0795 19.1143 63.1633 19.3432 63.1633 19.6223C63.1633 19.8903 63.0069 20.1415 62.6943 20.3759C62.3817 20.6104 61.9686 20.8002 61.455 20.9454C60.9414 21.0793 60.3943 21.1463 59.8138 21.1463C58.9541 21.1463 58.1948 20.9454 57.5361 20.5434C56.8885 20.1415 56.3861 19.5888 56.0288 18.8854C55.6715 18.1709 55.4929 17.3781 55.4929 16.5073C55.4929 15.6029 55.6771 14.799 56.0456 14.0956C56.4252 13.3922 56.9499 12.8451 57.6198 12.4544C58.2897 12.0524 59.049 11.8515 59.8975 11.8515ZM66.7916 19.9573C66.7916 20.2475 66.6911 20.4932 66.4901 20.6941C66.3003 20.8839 66.0603 20.9789 65.77 20.9789C65.4909 20.9789 65.2564 20.8839 65.0666 20.6941C64.8768 20.4932 64.7819 20.2475 64.7819 19.9573V9.6073C64.7819 9.31701 64.8768 9.07696 65.0666 8.88716C65.2676 8.68619 65.5132 8.5857 65.8035 8.5857C66.0826 8.5857 66.3171 8.68619 66.5069 8.88716C66.6967 9.07696 66.7916 9.31701 66.7916 9.6073V19.9573ZM77.573 16.5073C77.573 17.4005 77.3721 18.2043 76.9701 18.9189C76.5682 19.6223 76.0155 20.1694 75.3121 20.5602C74.6199 20.9509 73.8551 21.1463 73.0177 21.1463C72.1692 21.1463 71.3988 20.9509 70.7066 20.5602C70.0143 20.1694 69.4673 19.6223 69.0653 18.9189C68.6634 18.2043 68.4624 17.4005 68.4624 16.5073C68.4624 15.6141 68.6634 14.8158 69.0653 14.1124C69.4673 13.3978 70.0143 12.8451 70.7066 12.4544C71.3988 12.0524 72.1692 11.8515 73.0177 11.8515C73.8551 11.8515 74.6199 12.0524 75.3121 12.4544C76.0155 12.8451 76.5682 13.3978 76.9701 14.1124C77.3721 14.8158 77.573 15.6141 77.573 16.5073ZM75.5633 16.5073C75.5633 15.9602 75.4461 15.4745 75.2116 15.0502C74.9883 14.6148 74.6813 14.2799 74.2905 14.0454C73.9109 13.8109 73.4867 13.6937 73.0177 13.6937C72.5488 13.6937 72.1189 13.8109 71.7282 14.0454C71.3486 14.2799 71.0415 14.6148 70.8071 15.0502C70.5838 15.4745 70.4721 15.9602 70.4721 16.5073C70.4721 17.0544 70.5838 17.54 70.8071 17.9643C71.0415 18.3886 71.3486 18.7179 71.7282 18.9524C72.1189 19.1869 72.5488 19.3041 73.0177 19.3041C73.4867 19.3041 73.9109 19.1869 74.2905 18.9524C74.6813 18.7179 74.9883 18.3886 75.2116 17.9643C75.4461 17.54 75.5633 17.0544 75.5633 16.5073ZM85.9009 12.0189C86.1912 12.0189 86.4312 12.1194 86.621 12.3204C86.8108 12.5102 86.9057 12.7502 86.9057 13.0405V17.2944C86.9057 18.5002 86.5708 19.4437 85.9009 20.1247C85.2421 20.8058 84.2987 21.1463 83.0705 21.1463C81.8424 21.1463 80.8989 20.8058 80.2402 20.1247C79.5815 19.4437 79.2521 18.5002 79.2521 17.2944V13.0405C79.2521 12.7502 79.347 12.5102 79.5368 12.3204C79.7266 12.1194 79.9667 12.0189 80.257 12.0189C80.5472 12.0189 80.7873 12.1194 80.9771 12.3204C81.1669 12.5102 81.2618 12.7502 81.2618 13.0405V17.2944C81.2618 17.9755 81.4125 18.4835 81.714 18.8184C82.0154 19.1422 82.4676 19.3041 83.0705 19.3041C83.6846 19.3041 84.1424 19.1422 84.4438 18.8184C84.7453 18.4835 84.896 17.9755 84.896 17.2944V13.0405C84.896 12.7502 84.9909 12.5102 85.1807 12.3204C85.3705 12.1194 85.6106 12.0189 85.9009 12.0189ZM96.3331 8.5857C96.6234 8.5857 96.8635 8.6806 97.0533 8.87041C97.2431 9.06021 97.338 9.30584 97.338 9.6073V19.9573C97.338 20.2475 97.2431 20.4932 97.0533 20.6941C96.8635 20.8839 96.6234 20.9789 96.3331 20.9789C96.0428 20.9789 95.8028 20.8839 95.613 20.6941C95.4343 20.5043 95.3394 20.2643 95.3283 19.974C95.0491 20.2978 94.6695 20.5769 94.1894 20.8114C93.7205 21.0347 93.2237 21.1463 92.6989 21.1463C91.9285 21.1463 91.2307 20.9509 90.6055 20.5602C89.9802 20.1582 89.4834 19.6056 89.1149 18.9022C88.7577 18.1988 88.579 17.4005 88.579 16.5073C88.579 15.6141 88.7577 14.8158 89.1149 14.1124C89.4722 13.3978 89.9579 12.8451 90.572 12.4544C91.1972 12.0524 91.8839 11.8515 92.6319 11.8515C93.1678 11.8515 93.6703 11.9519 94.1392 12.1529C94.6081 12.3427 95.0045 12.5884 95.3283 12.8898V9.6073C95.3283 9.31701 95.4232 9.07696 95.613 8.88716C95.8028 8.68619 96.0428 8.5857 96.3331 8.5857ZM92.9501 19.3041C93.6758 19.3041 94.2676 19.0417 94.7254 18.517C95.1831 17.981 95.412 17.3111 95.412 16.5073C95.412 15.7034 95.1831 15.0335 94.7254 14.4976C94.2676 13.9616 93.6758 13.6937 92.9501 13.6937C92.2356 13.6937 91.6494 13.9616 91.1916 14.4976C90.7339 15.0335 90.505 15.7034 90.505 16.5073C90.505 17.3111 90.7283 17.981 91.1749 18.517C91.6327 19.0417 92.2244 19.3041 92.9501 19.3041ZM103.418 11.8515C104.367 11.8515 105.132 12.0022 105.713 12.3036C106.293 12.5939 106.583 12.9847 106.583 13.476C106.583 13.7216 106.511 13.9393 106.366 14.1291C106.221 14.3078 106.031 14.3971 105.796 14.3971C105.618 14.3971 105.472 14.3748 105.361 14.3301C105.249 14.2743 105.138 14.2073 105.026 14.1291C104.925 14.0398 104.825 13.9672 104.724 13.9114C104.613 13.8556 104.445 13.8053 104.222 13.7607C104.01 13.716 103.837 13.6937 103.703 13.6937C102.865 13.6937 102.207 13.9561 101.727 14.4808C101.258 14.9944 101.023 15.6699 101.023 16.5073C101.023 17.3111 101.263 17.981 101.743 18.517C102.223 19.0417 102.838 19.3041 103.586 19.3041C104.133 19.3041 104.54 19.2371 104.808 19.1031C104.875 19.0696 104.964 19.0138 105.076 18.9357C105.199 18.8463 105.311 18.7793 105.411 18.7347C105.512 18.69 105.634 18.6677 105.779 18.6677C106.059 18.6677 106.276 18.757 106.433 18.9357C106.6 19.1143 106.684 19.3432 106.684 19.6223C106.684 19.8903 106.528 20.1415 106.215 20.3759C105.902 20.6104 105.489 20.8002 104.976 20.9454C104.462 21.0793 103.915 21.1463 103.334 21.1463C102.475 21.1463 101.715 20.9454 101.057 20.5434C100.409 20.1415 99.9067 19.5888 99.5494 18.8854C99.1921 18.1709 99.0135 17.3781 99.0135 16.5073C99.0135 15.6029 99.1977 14.799 99.5662 14.0956C99.9458 13.3922 100.471 12.8451 101.14 12.4544C101.81 12.0524 102.57 11.8515 103.418 11.8515ZM115.387 11.8515C115.677 11.8515 115.917 11.9464 116.107 12.1362C116.297 12.326 116.392 12.5716 116.392 12.8731V19.9573C116.392 20.2475 116.297 20.4932 116.107 20.6941C115.917 20.8839 115.677 20.9789 115.387 20.9789C115.096 20.9789 114.856 20.8839 114.667 20.6941C114.488 20.5043 114.393 20.2643 114.382 19.974C114.103 20.2978 113.723 20.5769 113.243 20.8114C112.774 21.0347 112.277 21.1463 111.752 21.1463C110.982 21.1463 110.284 20.9509 109.659 20.5602C109.034 20.1582 108.537 19.6056 108.168 18.9022C107.811 18.1988 107.633 17.4005 107.633 16.5073C107.633 15.6141 107.811 14.8158 108.168 14.1124C108.526 13.3978 109.011 12.8451 109.626 12.4544C110.251 12.0524 110.937 11.8515 111.685 11.8515C112.221 11.8515 112.724 11.9519 113.193 12.1529C113.662 12.3427 114.058 12.5884 114.382 12.8898V12.8731C114.382 12.5828 114.477 12.3427 114.667 12.1529C114.856 11.9519 115.096 11.8515 115.387 11.8515ZM112.004 19.3041C112.729 19.3041 113.321 19.0417 113.779 18.517C114.237 17.981 114.466 17.3111 114.466 16.5073C114.466 15.7034 114.237 15.0335 113.779 14.4976C113.321 13.9616 112.729 13.6937 112.004 13.6937C111.289 13.6937 110.703 13.9616 110.245 14.4976C109.787 15.0335 109.559 15.7034 109.559 16.5073C109.559 17.3111 109.782 17.981 110.228 18.517C110.686 19.0417 111.278 19.3041 112.004 19.3041ZM118.05 19.5888C117.95 19.4548 117.9 19.2874 117.9 19.0864C117.9 18.7961 118.045 18.5505 118.335 18.3495C118.491 18.249 118.653 18.1988 118.821 18.1988C119.055 18.1988 119.278 18.3048 119.491 18.517C119.826 18.8631 120.172 19.1199 120.529 19.2874C120.897 19.4548 121.338 19.5386 121.852 19.5386C122.723 19.5051 123.158 19.1757 123.158 18.5505C123.158 18.2267 123.008 17.981 122.706 17.8136C122.416 17.6461 121.958 17.4786 121.333 17.3111C120.685 17.1325 120.155 16.9539 119.742 16.7752C119.34 16.5966 118.988 16.3286 118.687 15.9713C118.396 15.6029 118.251 15.1116 118.251 14.4976C118.251 13.9616 118.402 13.4983 118.703 13.1075C119.016 12.7056 119.418 12.3985 119.909 12.1864C120.412 11.9631 120.942 11.8515 121.5 11.8515C122.07 11.8515 122.639 11.9575 123.209 12.1697C123.778 12.3818 124.225 12.6944 124.548 13.1075C124.693 13.2862 124.766 13.4871 124.766 13.7104C124.766 13.9672 124.66 14.1794 124.448 14.3468C124.292 14.4697 124.113 14.5311 123.912 14.5311C123.666 14.5311 123.465 14.4529 123.309 14.2966C123.108 14.051 122.846 13.8556 122.522 13.7104C122.209 13.5653 121.852 13.4927 121.45 13.4927C120.602 13.4927 120.177 13.7998 120.177 14.4138C120.177 14.6595 120.255 14.8604 120.412 15.0167C120.568 15.1619 120.763 15.2791 120.998 15.3684C121.243 15.4466 121.584 15.5471 122.019 15.6699C122.622 15.8374 123.125 16.0104 123.527 16.1891C123.929 16.3677 124.269 16.6412 124.548 17.0097C124.827 17.3781 124.967 17.8638 124.967 18.4667C124.967 19.0138 124.805 19.4939 124.481 19.907C124.158 20.309 123.739 20.616 123.225 20.8281C122.723 21.0403 122.204 21.1463 121.668 21.1463C120.931 21.1463 120.244 21.0235 119.608 20.7779C118.971 20.5323 118.452 20.1359 118.05 19.5888ZM131.355 11.8515C132.46 11.8515 133.225 12.192 133.649 12.8731C134.074 13.543 134.286 14.4752 134.286 15.6699V19.9573C134.286 20.2475 134.191 20.4932 134.001 20.6941C133.811 20.8839 133.571 20.9789 133.281 20.9789C132.991 20.9789 132.751 20.8839 132.561 20.6941C132.371 20.4932 132.276 20.2475 132.276 19.9573V15.6699C132.276 15.0558 132.153 14.5757 131.908 14.2296C131.673 13.8723 131.254 13.6937 130.651 13.6937C130.026 13.6937 129.535 13.8835 129.178 14.2631C128.832 14.6315 128.659 15.1005 128.659 15.6699V19.9573C128.659 20.2475 128.564 20.4932 128.374 20.6941C128.184 20.8839 127.944 20.9789 127.654 20.9789C127.363 20.9789 127.123 20.8839 126.934 20.6941C126.744 20.4932 126.649 20.2475 126.649 19.9573V9.6073C126.649 9.31701 126.744 9.07696 126.934 8.88716C127.123 8.68619 127.363 8.5857 127.654 8.5857C127.944 8.5857 128.184 8.68619 128.374 8.88716C128.564 9.07696 128.659 9.31701 128.659 9.6073V13.3085C128.96 12.9066 129.34 12.566 129.797 12.2869C130.266 11.9966 130.785 11.8515 131.355 11.8515Z" fill="#0F4264"/>
<path d="M18.0501 19.9097C18.0501 24.8164 14.0724 28.7941 9.16565 28.7941C4.25893 28.7941 0.28125 24.8164 0.28125 19.9097C0.28125 17.3227 1.38695 14.994 3.15156 13.3703C4.73385 11.9143 6.84593 11.0253 9.16565 11.0253C14.0724 11.0253 18.0501 15.003 18.0501 19.9097Z" fill="#197BBD"/>
<path d="M43.6911 19.9097C43.6911 24.8164 39.7134 28.7941 34.8067 28.7941C29.8999 28.7941 25.9223 24.8164 25.9223 19.9097C25.9223 19.2829 25.9872 18.6713 26.1106 18.0812C26.9536 14.0517 30.5267 11.0253 34.8067 11.0253C39.7134 11.0253 43.6911 15.003 43.6911 19.9097Z" fill="#197BBD"/>
<path d="M33.7136 9.28855C33.7136 13.7601 30.4102 17.4601 26.1106 18.0812C25.6922 18.1417 25.2644 18.1729 24.8292 18.1729C20.5169 18.1729 16.9221 15.1005 16.1145 11.0253C16.0032 10.4636 15.9448 9.8829 15.9448 9.28855C15.9448 8.50795 16.0455 7.75087 16.2345 7.02958C17.2339 3.21691 20.7031 0.404144 24.8292 0.404144C29.7359 0.404144 33.7136 4.38183 33.7136 9.28855Z" fill="#197BBD"/>
<path d="M18.0501 19.9097C18.0501 24.8164 14.0724 28.7941 9.16565 28.7941H34.8067C29.8999 28.7941 25.9223 24.8164 25.9223 19.9097C25.9223 19.2829 25.9872 18.6713 26.1106 18.0812C25.6922 18.1417 25.2644 18.1729 24.8292 18.1729C20.5169 18.1729 16.9221 15.1005 16.1145 11.0253H10.3191H9.16565C14.0724 11.0253 18.0501 15.003 18.0501 19.9097Z" fill="#197BBD"/>
<path d="M16.1145 11.0253C16.0032 10.4636 15.9448 9.8829 15.9448 9.28855C15.9448 8.50795 16.0455 7.75087 16.2345 7.02958C15.4921 8.36149 13.2697 11.0253 10.3191 11.0253H16.1145Z" fill="#197BBD"/>
</svg>
