<svg height="512" viewBox="0 0 128 128" width="512" xmlns="http://www.w3.org/2000/svg"><g id="number"><text fill="#24253a" font-family="MyriadPro-Regular, Myriad Pro" font-size="40" letter-spacing=".002em" transform="translate(53.938 -966.265)">2<tspan x="-10.3" y="228">12</tspan><tspan x="-10.3" y="456">22</tspan><tspan x="-10.3" y="684">32</tspan><tspan x="-10.3" y="912">42</tspan><tspan x="-10.3" y="1140">52</tspan><tspan x="-10.3" y="1368">62</tspan><tspan x="-10.3" y="1596">72</tspan><tspan x="-10.3" y="1824">82</tspan><tspan x="-10.3" y="2052">92</tspan><tspan x="-20.599" y="2280">102</tspan><tspan x="-20.599" y="2508">112</tspan><tspan x="-20.599" y="2736">122</tspan><tspan x="-20.599" y="2964">132</tspan><tspan x="-20.599" y="3192">142</tspan><tspan x="-20.599" y="3420">152</tspan><tspan x="-20.599" y="3648">162</tspan><tspan x="-20.599" y="3876">172</tspan><tspan x="-20.599" y="4104">182</tspan><tspan x="-20.599" y="4332">192</tspan><tspan x="-20.599" y="4560">202</tspan><tspan x="-20.599" y="4788">212</tspan><tspan x="-20.599" y="5016">222</tspan><tspan x="-20.599" y="5244">232</tspan><tspan x="-20.599" y="5472">242</tspan></text></g><g id="Circle_Grid" data-name="Circle Grid"><circle cx="64" cy="64" fill="#2cbfae" r="64"/></g><g id="icon"><path d="m94.536 84.101-.244 1.95-.325 2.592-2.032 16.357h-55.87l-2.032-16.357-.325-2.592-.244-1.95z" fill="#f6b863"/><g fill="#f4bb87"><path d="m58.68 48.384h10.64v7.901h-10.64z"/><path d="m54.564 38.184a2.283 2.283 0 0 0 -2.283 2.283v.253a2.283 2.283 0 0 0 2.283 2.28.889.889 0 0 0 .889-.889v-3.04a.889.889 0 0 0 -.889-.887z"/><path d="m73.444 38.184a2.283 2.283 0 0 1 2.283 2.283v.253a2.283 2.283 0 0 1 -2.283 2.28.889.889 0 0 1 -.889-.889v-3.04a.889.889 0 0 1 .889-.887z"/></g><path d="m73.916 31.608v9.083c0 .288-1.314 6.016-4.758 9.107-.728.653-1.2 1.562-2.259 2.09a6.731 6.731 0 0 1 -5.767 0c-1.057-.529-1.531-1.437-2.259-2.09-3.444-3.091-4.782-8.819-4.782-9.107v-9.083c6.296-2.139 12.928-1.947 19.825 0z" fill="#fed19a"/><path d="m54.1 38.33s3-1.765 3.529-6.458c0 0 2.4 1.164 9.086 2.215s7.209 4.205 7.209 4.205a13.934 13.934 0 0 0 .214-9.211c-2.712-6.455-11.138-7.309-13.916-4.718-10.701 1.142-6.122 13.967-6.122 13.967z" fill="#414451"/><path d="m86.35 73.78c-4.526 4.21-13.15 4.943-13.15 4.943h-18.4s-8.624-.733-13.15-4.943c-3.158-2.937.233-10.6 2.571-14.965a12.086 12.086 0 0 1 6.379-5.64 62.755 62.755 0 0 1 6.7-1.975c.063-.013.126-.025.177-.038.544-.139.961-.228 1.239-.291.2 3.287 2.2 5.335 5.284 5.36 3.084-.025 5.082-2.073 5.284-5.36.278.063.7.152 1.239.291.051.013.114.025.177.038a62.755 62.755 0 0 1 6.7 1.973 12.086 12.086 0 0 1 6.375 5.639c2.342 4.367 5.733 12.031 2.575 14.968z" fill="#ef5261"/><path d="m70.523 51.165c-.329 3.818-2.857 6.3-6.51 6.333-3.666-.038-6.207-2.516-6.536-6.333.544-.139.961-.228 1.239-.291.2 3.287 2.2 5.335 5.284 5.36 3.084-.025 5.082-2.073 5.284-5.36.278.063.695.152 1.239.291z" fill="#da364c"/><path d="m80.373 59.129h-32.746a2.506 2.506 0 0 0 -2.488 2.81l1.976 16.161a2.506 2.506 0 0 0 2.485 2.2h28.8a2.506 2.506 0 0 0 2.488-2.2l1.976-16.162a2.506 2.506 0 0 0 -2.491-2.809z" fill="#eeefee"/><rect fill="#f6b863" height="5.751" rx=".813" width="66.022" x="30.989" y="80.303"/><path d="m68.206 69.859c0 1.4-1.875 2.522-4.212 2.522s-4.2-1.122-4.2-2.522 1.875-2.509 4.2-2.509 4.212 1.122 4.212 2.509z" fill="#dbd8dd"/><path d="m94.292 86.051-.325 2.592h-59.934l-.325-2.592z" fill="#eaa14e"/></g></svg>