<svg width="28" height="23" viewBox="0 0 28 23" fill="none" xmlns="http://www.w3.org/2000/svg">
<path d="M5.73562 19.0616C5.314 18.0867 4.9787 17.2422 4.99051 17.1849C5.01166 17.0824 7.60937 15.9668 7.6573 16.0396C7.7031 16.1093 7.41755 19.8115 7.3358 20.2077C7.2533 20.6076 6.92728 20.922 6.65354 20.8655C6.5703 20.8483 6.15725 20.0366 5.73562 19.0616ZM16.8308 22.4031C16.7819 22.1521 16.4231 19.5995 16.0335 16.7308C15.6438 13.8621 15.3077 11.4674 15.2864 11.4092C15.2652 11.351 16.4259 10.5292 17.8659 9.58291L20.484 7.86234L20.4293 8.51166C20.3993 8.86878 20.3341 9.36015 20.2845 9.60359C20.197 10.0339 20.2034 10.0441 20.5225 9.9714C20.7979 9.90863 20.8948 9.94601 21.1241 10.2036C21.2744 10.3724 21.4187 10.6633 21.4447 10.85C21.4875 11.1562 21.4196 11.2377 20.7502 11.6842L20.0083 12.179L19.8429 13.653L19.6775 15.127L20.0009 15.1289C20.3808 15.1312 20.836 15.6019 20.8576 16.0148C20.8682 16.218 20.6953 16.4067 20.1486 16.7887L19.4256 17.2938L19.212 19.3151C19.0946 20.4268 18.935 21.4702 18.8573 21.6339C18.6983 21.969 17.3219 22.9426 17.0782 22.8923C16.991 22.8744 16.8798 22.6542 16.8308 22.4031ZM2.73411 17.1293C2.5559 16.8584 2.92748 16.3765 4.48917 14.8529C5.4311 13.9339 6.41251 12.9989 6.67006 12.7751C7.3621 12.1737 22.6341 2.10409 23.6187 1.59995C24.7663 1.01235 25.6603 0.788083 26.3159 0.923328C26.6084 0.983672 26.8862 1.11056 26.9332 1.2053C27.2002 1.74366 26.8536 2.58238 25.9901 3.48712C25.4251 4.0791 9.82875 14.4568 8.43766 15.1663C7.05331 15.8725 3.32601 17.3339 3.05299 17.2775C2.91213 17.2485 2.76863 17.1818 2.73411 17.1293ZM2.23027 13.7049C1.37928 12.7962 0.889413 12.1796 0.916023 12.0506C0.939355 11.9375 1.11822 11.7941 1.31351 11.732C1.63428 11.6299 1.86155 11.6864 3.66692 12.3169C4.766 12.7007 5.67841 13.0341 5.6945 13.0578C5.7106 13.0815 5.24295 13.5628 4.65534 14.1273L3.58693 15.1537L2.23027 13.7049ZM8.18611 4.99253C5.52582 3.37682 3.29108 1.9993 3.22005 1.93137C3.01393 1.73425 3.09934 1.60715 3.75556 1.13448C4.74018 0.42527 4.88141 0.425319 7.20014 1.13571L9.19242 1.74608L9.85969 1.31425C10.6289 0.816433 11.0197 0.827119 11.3437 1.35482C11.5046 1.61667 11.5228 1.78468 11.4173 2.03349L11.2772 2.36418L12.675 2.80156L14.0728 3.23893L14.8327 2.76874C15.2506 2.51013 15.68 2.31658 15.7868 2.33861C16.0203 2.38678 16.5456 3.15119 16.4973 3.37251C16.4782 3.45885 16.3954 3.59914 16.3128 3.68415C16.1856 3.81511 16.3225 3.89061 17.2087 4.17822L18.2547 4.51772L15.6584 6.2397C14.2305 7.18679 13.0534 7.9546 13.0426 7.94594C13.0319 7.93729 10.8464 6.60825 8.18611 4.99253Z" fill="url(#paint0_linear)"/>
<defs>
<linearGradient id="paint0_linear" x1="15.6534" y1="-1.2763" x2="10.9047" y2="21.7425" gradientUnits="userSpaceOnUse">
<stop stop-color="#C9C9C9"/>
<stop offset="1" stop-color="white"/>
</linearGradient>
</defs>
</svg>
