<svg width="39" height="38" viewBox="0 0 39 38" fill="none" xmlns="http://www.w3.org/2000/svg">
<g filter="url(#filter0_d)">
<rect width="30" height="30" transform="translate(4.98633)" fill="white"/>
<path d="M19.9866 17.3153C21.2651 17.3153 22.3015 16.2789 22.3015 15.0004C22.3015 13.7219 21.2651 12.6854 19.9866 12.6854C18.7081 12.6854 17.6716 13.7219 17.6716 15.0004C17.6716 16.2789 18.7081 17.3153 19.9866 17.3153Z" stroke="#C7C7C7" stroke-width="2" stroke-linecap="round" stroke-linejoin="round"/>
<path d="M25.6965 17.3151C25.5938 17.5478 25.5632 17.806 25.6086 18.0563C25.654 18.3066 25.7733 18.5376 25.9512 18.7195L25.9975 18.7658C26.141 18.9091 26.2548 19.0793 26.3325 19.2667C26.4101 19.454 26.4501 19.6549 26.4501 19.8577C26.4501 20.0605 26.4101 20.2613 26.3325 20.4486C26.2548 20.636 26.141 20.8062 25.9975 20.9495C25.8542 21.093 25.6839 21.2069 25.4966 21.2845C25.3092 21.3622 25.1084 21.4022 24.9056 21.4022C24.7028 21.4022 24.502 21.3622 24.3146 21.2845C24.1273 21.2069 23.9571 21.093 23.8137 20.9495L23.7674 20.9032C23.5856 20.7253 23.3546 20.606 23.1043 20.5606C22.854 20.5152 22.5958 20.5459 22.363 20.6486C22.1348 20.7464 21.9402 20.9088 21.8031 21.1159C21.666 21.3229 21.5924 21.5655 21.5914 21.8138V21.945C21.5914 22.3543 21.4288 22.7468 21.1394 23.0362C20.85 23.3257 20.4574 23.4882 20.0481 23.4882C19.6388 23.4882 19.2463 23.3257 18.9568 23.0362C18.6674 22.7468 18.5048 22.3543 18.5048 21.945V21.8755C18.4988 21.6201 18.4162 21.3724 18.2675 21.1646C18.1189 20.9568 17.9112 20.7985 17.6714 20.7103C17.4387 20.6076 17.1805 20.577 16.9302 20.6224C16.6799 20.6677 16.4489 20.7871 16.2671 20.965L16.2208 21.0113C16.0774 21.1548 15.9072 21.2686 15.7199 21.3463C15.5325 21.4239 15.3317 21.4639 15.1289 21.4639C14.9261 21.4639 14.7252 21.4239 14.5379 21.3463C14.3505 21.2686 14.1803 21.1548 14.037 21.0113C13.8935 20.8679 13.7797 20.6977 13.702 20.5104C13.6243 20.323 13.5844 20.1222 13.5844 19.9194C13.5844 19.7166 13.6243 19.5158 13.702 19.3284C13.7797 19.1411 13.8935 18.9708 14.037 18.8275L14.0833 18.7812C14.2612 18.5994 14.3805 18.3684 14.4259 18.1181C14.4713 17.8677 14.4407 17.6096 14.3379 17.3768C14.2401 17.1486 14.0777 16.954 13.8707 16.8169C13.6637 16.6797 13.4211 16.6062 13.1728 16.6052H13.0416C12.6323 16.6052 12.2397 16.4426 11.9503 16.1532C11.6609 15.8637 11.4983 15.4712 11.4983 15.0619C11.4983 14.6526 11.6609 14.26 11.9503 13.9706C12.2397 13.6812 12.6323 13.5186 13.0416 13.5186H13.111C13.3664 13.5126 13.6141 13.43 13.8219 13.2813C14.0297 13.1327 14.188 12.925 14.2762 12.6852C14.3789 12.4525 14.4096 12.1943 14.3642 11.944C14.3188 11.6937 14.1995 11.4627 14.0216 11.2808L13.9753 11.2345C13.8318 11.0912 13.7179 10.921 13.6403 10.7337C13.5626 10.5463 13.5226 10.3455 13.5226 10.1427C13.5226 9.93985 13.5626 9.73903 13.6403 9.55168C13.7179 9.36433 13.8318 9.19412 13.9753 9.05079C14.1186 8.9073 14.2888 8.79347 14.4762 8.7158C14.6635 8.63814 14.8643 8.59816 15.0671 8.59816C15.27 8.59816 15.4708 8.63814 15.6581 8.7158C15.8455 8.79347 16.0157 8.9073 16.159 9.05079L16.2053 9.09709C16.3872 9.27498 16.6182 9.39431 16.8685 9.4397C17.1188 9.48509 17.377 9.45445 17.6097 9.35173H17.6714C17.8997 9.25391 18.0943 9.0915 18.2314 8.88447C18.3685 8.67745 18.4421 8.43485 18.4431 8.18655V8.05537C18.4431 7.64606 18.6057 7.25352 18.8951 6.9641C19.1845 6.67468 19.5771 6.51208 19.9864 6.51208C20.3957 6.51208 20.7882 6.67468 21.0776 6.9641C21.3671 7.25352 21.5297 7.64606 21.5297 8.05537V8.12482C21.5307 8.37312 21.6042 8.61572 21.7413 8.82274C21.8784 9.02977 22.0731 9.19218 22.3013 9.29C22.534 9.39272 22.7922 9.42336 23.0425 9.37797C23.2929 9.33258 23.5238 9.21325 23.7057 9.03536L23.752 8.98906C23.8953 8.84557 24.0655 8.73174 24.2529 8.65407C24.4402 8.57641 24.6411 8.53643 24.8439 8.53643C25.0467 8.53643 25.2475 8.57641 25.4349 8.65407C25.6222 8.73174 25.7924 8.84557 25.9357 8.98906C26.0792 9.13239 26.1931 9.30259 26.2707 9.48995C26.3484 9.6773 26.3884 9.87812 26.3884 10.0809C26.3884 10.2837 26.3484 10.4846 26.2707 10.6719C26.1931 10.8593 26.0792 11.0295 25.9357 11.1728L25.8894 11.2191C25.7116 11.401 25.5922 11.632 25.5468 11.8823C25.5014 12.1326 25.5321 12.3908 25.6348 12.6235V12.6852C25.7326 12.9135 25.895 13.1081 26.1021 13.2452C26.3091 13.3823 26.5517 13.4559 26.8 13.4569H26.9312C27.3405 13.4569 27.733 13.6195 28.0224 13.9089C28.3119 14.1983 28.4745 14.5909 28.4745 15.0002C28.4745 15.4095 28.3119 15.802 28.0224 16.0914C27.733 16.3809 27.3405 16.5435 26.9312 16.5435H26.8617C26.6134 16.5444 26.3708 16.618 26.1638 16.7551C25.9568 16.8922 25.7944 17.0869 25.6965 17.3151V17.3151Z" stroke="#C7C7C7" stroke-width="2" stroke-linecap="round" stroke-linejoin="round"/>
</g>
<defs>
<filter id="filter0_d" x="0.986328" y="0" width="38" height="38" filterUnits="userSpaceOnUse" color-interpolation-filters="sRGB">
<feFlood flood-opacity="0" result="BackgroundImageFix"/>
<feColorMatrix in="SourceAlpha" type="matrix" values="0 0 0 0 0 0 0 0 0 0 0 0 0 0 0 0 0 0 127 0"/>
<feOffset dy="4"/>
<feGaussianBlur stdDeviation="2"/>
<feColorMatrix type="matrix" values="0 0 0 0 0 0 0 0 0 0 0 0 0 0 0 0 0 0 0.25 0"/>
<feBlend mode="normal" in2="BackgroundImageFix" result="effect1_dropShadow"/>
<feBlend mode="normal" in="SourceGraphic" in2="effect1_dropShadow" result="shape"/>
</filter>
</defs>
</svg>
